<svg xmlns="http://www.w3.org/2000/svg" viewBox="0 0 29.24 29.24"><defs><style>.cls-1{fill:#80808f;}</style></defs><g id="Слой_2" data-name="Слой 2"><g id="Слой_1-2" data-name="Слой 1"><path class="cls-1" d="M14.62,29.24A14.62,14.62,0,1,1,29.24,14.62,14.64,14.64,0,0,1,14.62,29.24Zm0-26.39A11.77,11.77,0,1,0,26.39,14.62,11.78,11.78,0,0,0,14.62,2.85Z"/><path class="cls-1" d="M15.15,5.8a7.34,7.34,0,0,1,7.63,7.64c0,4.2-2.48,5.73-4.27,5.73a2.15,2.15,0,0,1-2.15-2,3.84,3.84,0,0,1-3.29,1.75c-1.74,0-3.29-1.39-3.29-3.75a4.77,4.77,0,0,1,4.48-5.08,2.7,2.7,0,0,1,2.56,1.84l.24-1.6h1.78l-1,5.51a4.37,4.37,0,0,0-.05.64c0,.58.14,1.1.93,1.1s2.36-1.14,2.36-4.15c0-3.17-2-6.09-6-6.09-4.49,0-7.4,3.39-7.4,7.76,0,3.89,2.43,6.32,6.2,6.32a8.45,8.45,0,0,0,4.8-1.24l.83,1.36A9.82,9.82,0,0,1,14,23c-5.1,0-7.87-3.12-7.87-7.87C6.08,9.88,9.8,5.8,15.15,5.8Zm-1.6,11.46c1.19,0,2.79-.81,2.79-3.34a2,2,0,0,0-2.08-2.15c-1.31,0-2.67,1.29-2.67,3.34C11.59,16.45,12.24,17.26,13.55,17.26Z"/></g></g></svg>