<svg xmlns="http://www.w3.org/2000/svg" viewBox="0 0 29 29"><defs><style>.cls-1{fill:#80808f;}</style></defs><g id="Слой_2" data-name="Слой 2"><g id="Слой_1-2" data-name="Слой 1"><path class="cls-1" d="M20.67,29H8.34A8.35,8.35,0,0,1,0,20.66V8.34A8.35,8.35,0,0,1,8.34,0H20.67A8.35,8.35,0,0,1,29,8.34V20.66A8.35,8.35,0,0,1,20.67,29ZM8.34,2.93A5.42,5.42,0,0,0,2.93,8.34V20.66a5.42,5.42,0,0,0,5.41,5.41H20.67a5.42,5.42,0,0,0,5.4-5.41V8.34a5.42,5.42,0,0,0-5.4-5.41Z"/><path class="cls-1" d="M21.71,6.87a1.79,1.79,0,0,0-1.85-.14L18,7.49C14,9.22,9.89,10.92,5.81,12.68a2.09,2.09,0,0,0-1,.85,1.26,1.26,0,0,0-.08,1.12,1.81,1.81,0,0,0,1.2,1.08c.91.35,1.85.65,2.79.94A.39.39,0,0,1,9,17l.06.21c.35,1.14.67,2.32,1.08,3.46a1.58,1.58,0,0,0,1,1.09,1.61,1.61,0,0,0,1.44-.44c.5-.44,1-.88,1.47-1.35l.88.67c.61.5,1.26,1,1.9,1.47a2.11,2.11,0,0,0,1.15.38,1.66,1.66,0,0,0,.64-.15,1.82,1.82,0,0,0,1.2-1.4c.15-.68.27-1.35.41-2l.68-3.52,1.32-6.72A1.74,1.74,0,0,0,21.71,6.87ZM17.87,20.34c-.73-.56-1.44-1.12-2.17-1.67l-1.76-1.32L12.18,19c.06-.47.14-.91.17-1.35A1.61,1.61,0,0,1,13,16.5c1.85-1.71,3.67-3.41,5.49-5.11a1.64,1.64,0,0,0,.32-.47l.09-.17.44-.74-.85.21a.38.38,0,0,1-.18,0,1.55,1.55,0,0,0-.53.17c-2.43,1.5-4.87,3-7.3,4.52A.4.4,0,0,1,10,15c-.82-.29-1.65-.56-2.5-.85L20.16,8.81,17.9,20.34Z"/></g></g></svg>