<svg xmlns="http://www.w3.org/2000/svg" viewBox="0 0 29.5 29.2"><defs><style>.cls-1{fill:#80808f;}</style></defs><g id="Слой_2" data-name="Слой 2"><g id="Слой_1-2" data-name="Слой 1"><path class="cls-1" d="M14.93,0A14.49,14.49,0,0,0,1.77,20.73l-.09-.08a21.37,21.37,0,0,1-.39,4.22A22.59,22.59,0,0,1,0,29.2a38.85,38.85,0,0,1,3.94-.71,43.51,43.51,0,0,1,5.65-.37l0,0A14.56,14.56,0,1,0,14.93,0Zm0,26.17a11.6,11.6,0,1,1,11.59-11.6A11.62,11.62,0,0,1,14.93,26.17Z"/><path class="cls-1" d="M18.62,16.28a.53.53,0,0,0-.73.16c-.22.27-.45.53-.68.78-.65.72-.7.72-1.53.29a8.81,8.81,0,0,1-3.52-3.22c-.68-1.08-.54-.9.1-1.66a2.17,2.17,0,0,0,.39-.54,1.36,1.36,0,0,0,.11-.83c-.29-.89-.65-1.75-1-2.62a.69.69,0,0,0-.38-.37,1.82,1.82,0,0,0-1.88.4,3.82,3.82,0,0,0-1.1,3.22A8.66,8.66,0,0,0,10,15.44a12.62,12.62,0,0,0,7,5.29c.41.12.84.17,1.14.23l.86-.08a2.72,2.72,0,0,0,2.43-2.61.74.74,0,0,0-.25-.6C20.38,17.17,19.5,16.73,18.62,16.28Z"/></g></g></svg>