<svg xmlns="http://www.w3.org/2000/svg" viewBox="0 0 146.1 20"><defs><style>.cls-1,.cls-2{fill:#80808f;}.cls-2{opacity:0.3;}</style></defs><g id="Слой_2" data-name="Слой 2"><g id="Слой_2-2" data-name="Слой 2"><rect class="cls-1" y="6.5" width="2" height="7"/><rect class="cls-1" x="4.5" y="4.19" width="2" height="11.61"/><rect class="cls-1" x="9.01" y="9" width="2" height="2"/><rect class="cls-1" x="13.51" y="7.5" width="2" height="5"/><rect class="cls-1" x="18.01" y="6.5" width="2" height="7"/><rect class="cls-1" x="22.52" y="9" width="2" height="2"/><rect class="cls-1" x="27.02" y="7.5" width="2" height="5"/><rect class="cls-1" x="31.52" y="8.5" width="2" height="3"/><rect class="cls-1" x="36.03" y="8.5" width="2" height="3"/><rect class="cls-1" x="40.53" y="7.5" width="2" height="5"/><rect class="cls-1" x="45.03" y="4.19" width="2" height="11.61"/><rect class="cls-1" x="49.54" y="7.5" width="2" height="5"/><rect class="cls-1" x="54.04" y="5" width="2" height="10"/><rect class="cls-1" x="58.54" y="4.19" width="2" height="11.61"/><rect class="cls-1" x="63.04" y="2.5" width="2" height="15"/><rect class="cls-1" x="67.55" width="2" height="20"/><rect class="cls-2" x="72.05" y="2.5" width="2" height="15"/><rect class="cls-2" x="76.55" y="4.19" width="2" height="11.61"/><rect class="cls-2" x="81.06" y="7.5" width="2" height="5"/><rect class="cls-2" x="85.56" y="6.5" width="2" height="7"/><rect class="cls-2" x="90.06" y="6.5" width="2" height="7"/><rect class="cls-2" x="94.57" y="6.5" width="2" height="7"/><rect class="cls-2" x="99.07" y="4.19" width="2" height="11.61"/><rect class="cls-2" x="103.57" y="6.5" width="2" height="7"/><rect class="cls-2" x="108.08" y="6.5" width="2" height="7"/><rect class="cls-2" x="112.58" y="7.5" width="2" height="5"/><rect class="cls-2" x="117.08" y="8.5" width="2" height="3"/><rect class="cls-2" x="121.59" y="8.5" width="2" height="3"/><rect class="cls-2" x="126.09" y="9" width="2" height="2"/><rect class="cls-2" x="130.59" y="7.5" width="2" height="5"/><rect class="cls-2" x="135.1" y="4.19" width="2" height="11.61"/><rect class="cls-2" x="139.6" y="9" width="2" height="2"/><rect class="cls-2" x="144.1" y="9" width="2" height="2"/></g></g></svg>