<svg xmlns="http://www.w3.org/2000/svg" viewBox="0 0 28.3 28.3"><defs><style>.cls-1{fill:#fff;}</style></defs><g id="Слой_2" data-name="Слой 2"><g id="Слой_1-2" data-name="Слой 1"><path class="cls-1" d="M20.16,28.3h-12A8.15,8.15,0,0,1,0,20.16v-12A8.14,8.14,0,0,1,8.13,0h12A8.15,8.15,0,0,1,28.3,8.13v12A8.15,8.15,0,0,1,20.16,28.3ZM8.13,2.86A5.28,5.28,0,0,0,2.86,8.13v12a5.28,5.28,0,0,0,5.27,5.27h12a5.27,5.27,0,0,0,5.27-5.27v-12a5.28,5.28,0,0,0-5.27-5.27Z"/><path class="cls-1" d="M21.18,6.71a1.73,1.73,0,0,0-1.8-.15l-1.77.75c-4,1.69-8,3.35-11.94,5.06a2,2,0,0,0-1,.83,1.23,1.23,0,0,0-.09,1.09,1.8,1.8,0,0,0,1.18,1.06c.88.34,1.8.63,2.71.92.18.05.23.11.29.31l.06.2c.34,1.12.66,2.26,1.06,3.38a1.53,1.53,0,0,0,1,1.06,1.55,1.55,0,0,0,1.4-.43c.49-.43,1-.86,1.43-1.32l.86.66c.6.49,1.23.94,1.86,1.43a2,2,0,0,0,1.12.37,1.6,1.6,0,0,0,.63-.14,1.81,1.81,0,0,0,1.17-1.37c.15-.66.26-1.32.4-2L20.41,15,21.7,8.45A1.67,1.67,0,0,0,21.18,6.71ZM17.43,19.84l-2.11-1.63L13.6,16.92,11.88,18.5c.06-.46.14-.89.17-1.32a1.6,1.6,0,0,1,.6-1.09c1.81-1.66,3.58-3.32,5.36-5a1.35,1.35,0,0,0,.31-.45l.09-.18.43-.71L18,10a.36.36,0,0,1-.17,0,1.44,1.44,0,0,0-.52.17c-2.38,1.46-4.75,2.92-7.13,4.41a.39.39,0,0,1-.43.05L7.33,13.8,19.67,8.6,17.46,19.84Z"/></g></g></svg>