<svg xmlns="http://www.w3.org/2000/svg" viewBox="0 0 27.84 27.83"><defs><style>.cls-1{fill:#fff;}</style></defs><g id="Слой_2" data-name="Слой 2"><g id="Слой_1-2" data-name="Слой 1"><path class="cls-1" d="M26.64,4.65a8.18,8.18,0,0,0-.51-.79A9.28,9.28,0,0,0,18.64,0H9.19A9.06,9.06,0,0,0,3.73,1.81a8.76,8.76,0,0,0-2,2,6.56,6.56,0,0,0-.54.83A9.07,9.07,0,0,0,0,9.19v9.45a9.1,9.1,0,0,0,1.19,4.52,7.39,7.39,0,0,0,.42.66,8.85,8.85,0,0,0,2.58,2.52l0,0a9.09,9.09,0,0,0,4.95,1.45h9.45a9.09,9.09,0,0,0,4.95-1.45s0,0,0,0h0a9,9,0,0,0,2.64-2.6q.19-.29.36-.57a9.08,9.08,0,0,0,1.21-4.54V9.19A9.15,9.15,0,0,0,26.64,4.65Zm-1,14a7,7,0,0,1-7,7H9.19a7,7,0,0,1-7-7V9.19a7,7,0,0,1,7-7h9.45a7,7,0,0,1,7,7Z"/><path class="cls-1" d="M19.9,14.55a.77.77,0,0,0,.11,1c.39.44.81.85,1.21,1.28a8,8,0,0,1,1.18,1.53,1.37,1.37,0,0,1,.15.38.53.53,0,0,1-.51.76c-.38,0-.77,0-1.15,0s-1,0-1.49,0a1.65,1.65,0,0,1-1.12-.45c-.35-.32-.65-.69-1-1s-.46-.51-.7-.76a.69.69,0,0,0-.22-.16.39.39,0,0,0-.54.08,1.63,1.63,0,0,0-.43,1.1c0,.18,0,.36,0,.54,0,.37-.19.58-.53.61a5.88,5.88,0,0,1-4.19-1,9.67,9.67,0,0,1-2.15-2.27,30,30,0,0,1-3.22-6,.77.77,0,0,0-.07-.16V9.79a.51.51,0,0,1,.44-.26l.27,0h2.2a.82.82,0,0,1,.81.55c.44,1,.89,1.94,1.36,2.9A3,3,0,0,0,11.09,14a1.06,1.06,0,0,0,.26.17.35.35,0,0,0,.48-.2A2.58,2.58,0,0,0,12,13,7.72,7.72,0,0,0,12,10.63a.93.93,0,0,0-.78-.81c-.22-.05-.23-.11-.08-.28a1.07,1.07,0,0,1,.66-.38,9,9,0,0,1,2.93,0c.49.08.67.26.71.87s0,.93,0,1.4c0,.63,0,1.25,0,1.88a1.66,1.66,0,0,0,.1.54c.13.37.39.42.67.18a5.89,5.89,0,0,0,1.08-1.45,14.41,14.41,0,0,0,1.19-2.51c.18-.46.26-.51.72-.51l2.73,0a1.52,1.52,0,0,1,.42.06c.26.08.34.23.29.52a3,3,0,0,1-.49,1.17c-.59.9-1.21,1.79-1.81,2.68A5.7,5.7,0,0,0,19.9,14.55Z"/></g></g></svg>