<svg xmlns="http://www.w3.org/2000/svg" viewBox="0 0 27.84 27.83"><defs><style>.cls-1{fill:#fff;}</style></defs><g id="Слой_2" data-name="Слой 2"><g id="Слой_1-2" data-name="Слой 1"><path class="cls-1" d="M26.64,4.65a9.2,9.2,0,0,0-8-4.65H9.19a9.18,9.18,0,0,0-8,4.67A9.07,9.07,0,0,0,0,9.19v9.45a9.1,9.1,0,0,0,1.19,4.52,9.22,9.22,0,0,0,3.05,3.22,9.09,9.09,0,0,0,4.95,1.45h9.45a9.09,9.09,0,0,0,4.95-1.45,9.22,9.22,0,0,0,3-3.2,9.08,9.08,0,0,0,1.21-4.54V9.19A9.15,9.15,0,0,0,26.64,4.65Zm-1,14a7,7,0,0,1-7,7H18v-8h3V13.89H18v-2c0-.49.13-.84.74-.84h2.31V6.79H18.48A4.92,4.92,0,0,0,13.73,12v1.9H11v3.79h2.77v8H9.19a7,7,0,0,1-7-7V9.19a7,7,0,0,1,7-7h9.45a7,7,0,0,1,7,7Z"/></g></g></svg>