<svg xmlns="http://www.w3.org/2000/svg" viewBox="0 0 27.83 27.83"><defs><style>.cls-1{fill:#fff;}</style></defs><g id="Слой_2" data-name="Слой 2"><g id="Слой_1-2" data-name="Слой 1"><path class="cls-1" d="M13.92,21A7.07,7.07,0,1,1,21,13.92,7.07,7.07,0,0,1,13.92,21ZM13.92,9a4.88,4.88,0,1,0,4.87,4.88A4.89,4.89,0,0,0,13.92,9Z"/><circle class="cls-1" cx="21.15" cy="6.79" r="1.26"/><path class="cls-1" d="M18.64,27.83H9.19A9.2,9.2,0,0,1,0,18.64V9.19A9.2,9.2,0,0,1,9.19,0h9.45a9.2,9.2,0,0,1,9.19,9.19v9.45A9.2,9.2,0,0,1,18.64,27.83ZM9.19,2.19a7,7,0,0,0-7,7v9.45a7,7,0,0,0,7,7h9.45a7,7,0,0,0,7-7V9.19a7,7,0,0,0-7-7Z"/></g></g></svg>